<?xml version='1.0' encoding='utf-8'?>
<svg xmlns="http://www.w3.org/2000/svg" version="1.1" id="Capa_1" x="0px" y="0px" viewBox="0 0 792 612" style="enable-background:new 0 0 792 612;"> <style type="text/css"> .st0{fill:none;} .st1{fill:#7A8487;} .st2{fill:#D3D6D7;} .st3{fill:#0B0B0C;} .st4{fill:#E3B13D;} .st5{fill:none;stroke:#D3D6D7;stroke-width:0;stroke-linecap:round;stroke-linejoin:round;} </style> <g> <path class="st0" d="M550.4,478c0.2-0.3,0.4-0.7,0.6-1C550.8,477.3,550.6,477.7,550.4,478C550.4,478,550.4,478,550.4,478z"/> <path class="st0" d="M192.7,201.2c0.4,0.5,0.8,1,1.2,1.4c0.9,1.4,1.7,2.8,2.6,4.1c-0.9-1.4-1.7-2.8-2.6-4.1 C193.5,202.1,193.1,201.7,192.7,201.2z"/> <path class="st0" d="M480.6,456.1c-1.9,5.9-4,11.7-6.6,17.4l0,0C476.6,467.7,478.7,462,480.6,456.1z"/> <path class="st0" d="M549.7,478.2c-0.1,0.1-0.1,0.2-0.1,0.4C549.6,478.5,549.7,478.3,549.7,478.2z"/> <path class="st0" d="M241.5,478c0.2,0.2,0.5,0.4,0.7,0.5c0.2,0.2,0.4,0.4,0.6,0.5c-0.2-0.2-0.4-0.4-0.6-0.5 C242,478.4,241.7,478.2,241.5,478z"/> <path class="st0" d="M549.5,479c-1.6,1.7-3.2,3.3-4.7,5C546.3,482.4,547.9,480.7,549.5,479c0-0.1,0.1-0.3,0.1-0.4 C549.6,478.7,549.5,478.9,549.5,479z"/> <path class="st0" d="M182.2,208.9C182.2,208.9,182.2,208.9,182.2,208.9c0.1-1.1,0.2-2.2,0.3-3.3 C182.4,206.6,182.2,207.8,182.2,208.9z"/> <path class="st0" d="M604,210.2c-0.4,1-0.7,2.1-0.9,3.2C603.3,212.3,603.5,211.2,604,210.2L604,210.2z"/> <path class="st0" d="M550.4,478c0.7-0.5,1.5-0.8,2.2-1.3C551.9,477.1,551.2,477.5,550.4,478C550.4,478,550.4,478,550.4,478z"/> <path class="st0" d="M189.5,216.6c-0.5-2.2-1-4.3-1.5-6.5c0-0.4,0-0.9,0-1.3c0,0.4,0,0.9,0,1.3C188.5,212.3,189,214.5,189.5,216.6z "/> <path class="st0" d="M608.2,211.5C608.2,211.6,608.2,211.6,608.2,211.5C608.2,211.6,608.2,211.6,608.2,211.5z"/> <path class="st0" d="M609.8,208.9c0.3-0.3,0.5-0.6,0.8-0.8C610.4,208.3,610.1,208.6,609.8,208.9c-0.1,0.4-0.3,0.8-0.5,1.2 C609.6,209.7,609.7,209.3,609.8,208.9z"/> <path class="st0" d="M480.6,456.1c0.9-2.9,1.8-5.9,2.6-8.9C482.4,450.2,481.5,453.1,480.6,456.1z"/> <path class="st0" d="M241.6,478C241.6,478,241.6,478,241.6,478c-0.4-0.6-0.7-1.3-1.2-1.9C240.9,476.7,241.2,477.4,241.6,478z"/> <path class="st0" d="M250,303.5c-4.7-2.1-9.4-4.2-14.2-6.4c-1.3-0.7-2.6-1.5-4-2.2c1.3,0.7,2.7,1.4,4,2.2 C240.6,299.2,245.3,301.4,250,303.5z"/> <path class="st0" d="M627.2,210.3c0,0,0,0.1,0,0.1c0.1-0.1,0.1-0.1,0.2-0.2C627.3,210.3,627.2,210.3,627.2,210.3z"/> <path class="st0" d="M494.9,325.7c3.2-2.3,6.7-4.2,10.2-6C501.6,321.4,498.2,323.4,494.9,325.7c-3.9,2.2-7.3,5-10.2,8.3 C487.7,330.6,491,327.8,494.9,325.7z"/> <path class="st0" d="M164.7,210.4c0,0,0.1,0,0.1,0c-0.1-0.1-0.1-0.1-0.2-0.2C164.7,210.3,164.7,210.4,164.7,210.4z"/> <polygon class="st0" points="550.5,478 550.5,478 550.5,478 "/> <path class="st1" d="M179.8,206.5c0.7,0.8,1.6,1.5,2.3,2.3c0.1-1.1,0.2-2.2,0.3-3.3c0.4-6.8,0.6-13.5,1.1-20.3 c0.7-9.5,1.4-18.9,2.3-28.3c0.8-8.4,1.8-16.8,2.8-25.2c1.3-9.8,2.7-19.6,4.1-29.3c1.8-12.7,4.2-25.3,7.4-37.8 c1.7-6.7,3.4-13.3,6.7-19.4c0.6-1,1.3-2,2.1-3.2c1.5,1.5,2.9,2.8,4.2,4.2c9.5,10.3,17.9,21.4,24.9,33.6c7.9,13.7,14,28.2,18.2,43.4 c1.3,4.8,2.3,9.6,3.5,14.4c0.3,1,0.1,1.6-0.7,2.3c-5.6,4.4-11.2,8.8-16.7,13.2c-0.1,0-0.2,0-0.5,0.1c-7.3-8.9-15-17.7-25.2-24.9 c0.4,11.5,0.1,22.5-1.3,33.7c-5.3-3.6-10-7.3-15.8-9.9c0.2,1.8,0.3,3.2,0.4,4.7c1.1,8.5,1,17,0.8,25.6c-0.1,3.8-0.8,7.6-1,11.4 c-0.1,1.5-0.8,2.5-1.6,3.6c-1.5,1.8-2.9,3.6-4.4,5.4c0.9,1.4,1.7,2.8,2.6,4.1s1.8,2.7,2.7,4c4.4,5.9,9.4,11.3,14.8,16.3 c5.2,4.9,10.9,9.1,16.7,13.2c8.3,5.9,17.1,11.2,25.9,16.4c0.7,0.4,1.5,0.8,2.6,1.4c3.4-8.5,6.1-17,8.6-25.5 c2.4-8.6,4.5-17.3,6.8-26.2c0.4,0.4,0.9,0.7,1.2,1.2c3.7,5.8,7.1,11.7,10.2,17.9c1.2,2.5,2.4,5,3.8,7.9c7.4-16.9,13.5-34,18.8-51.5 c0.4,0.7,0.9,1.4,1.2,2.2c4.3,8.4,7.4,17.3,10.4,26.3c3.3,10,6.2,20.1,8.3,30.5c1.8,9.1,3.5,18.1,5,27.3c0.7,4.2,0.8,8.6,1.2,12.9 c0.7,7.2,1.1,14.5,0.8,21.7c-0.4,12.7-1.8,25.3-6,37.4c-2.8,8-6.6,15.5-12.1,21.9c-4.5,5.3-9.8,9.7-16,12.8 c-1.2,0.6-2.4,1.2-3.9,1.9c0.3,3.3,0.5,6.6,0.9,9.9c0.5,4.4,1.1,8.7,1.7,13c0.8,5.6,1.5,11.2,2.5,16.8c1,6.1,2.1,12.1,3.4,18.1 c2.6,12.3,6.1,24.3,10.9,35.9c0.1,0.2,0.2,0.4,0.3,0.6c0.3,0.6,0.7,1.2,1.1,1.9c4-3.2,8.5-5.1,13.2-6.6c2.1-0.6,4.3-1.2,6.5-1.7 c7.9-1.8,16-2.8,24.1-3.5c5.6-0.4,11.3-0.8,17-1c6.5-0.3,13.1-0.5,19.6-0.5c7.4,0,14.9,0.2,22.3,0.7c11.1,0.7,22.1,1.8,32.9,4.1 c5.2,1.1,10.5,2.4,15.2,5c1.9,1,3.5,2.5,5.2,3.7c2.5-5.7,4.7-11.5,6.6-17.4c0.9-2.9,1.8-5.9,2.6-8.9c0.8-3,1.5-6,2.1-9 c1.9-8.7,3.5-17.5,5.1-26.3c1-5.6,1.5-11.2,2.2-16.8c0.6-4.5,1.1-9,1.7-13.5c0.6-4.5,0.6-4.6-3.5-6.7c-7.2-3.6-13.1-8.8-17.9-15.2 c-6.7-8.7-10.5-18.6-13-29.1c-1.2-5.2-2-10.5-2.5-15.8c-0.8-7.4-1-14.8-0.8-22.2c0.2-5.7,0.8-11.4,1.3-17.1 c0.8-10.5,2.7-20.9,4.9-31.1c1.8-8.4,4-16.8,6.4-25c2.8-10.1,6.3-19.9,10.5-29.6c0.8-1.9,1.7-3.8,2.6-5.7c0.3-0.7,0.8-1.3,1.7-2 c1.3,4.3,2.6,8.6,3.9,12.9c1.4,4.3,2.8,8.5,4.3,12.7c1.5,4.3,3.1,8.5,4.8,12.8c1.6,4.2,3.4,8.3,5.1,12.4c1.2-0.2,1.3-1.1,1.6-1.7 c3.6-7.9,7.6-15.5,12.3-22.7c0.3-0.5,0.6-0.9,1-1.4c0.1-0.2,0.4-0.2,0.9-0.5c3.7,17.6,8.5,34.7,15.1,51.7c1.5-0.8,2.7-1.4,3.9-2.1 c6.5-4,13.1-7.9,19.5-12.2c7-4.7,13.9-9.6,20.2-15.4c2.4-2.2,4.8-4.4,7.1-6.8c5.5-5.5,10.1-11.7,14.4-18.2c0.2-0.3,0.2-0.6,0.3-0.9 c-1.5-1.8-2.9-3.6-4.4-5.3c-1-1.2-1.6-2.5-1.8-4.1c-1-9.5-1.3-18.9-0.8-28.4c0.2-3.7,0.7-7.4,1.1-11.2c0-0.4,0-0.8,0-1.5 c-5.7,2.5-10.5,6.3-15.7,9.9c-1.4-11.2-1.6-22.2-1.3-33.6c-5.3,3.5-9.6,7.5-13.6,11.8c-4,4.2-7.8,8.6-11.8,13.1 c-1.5-1.2-3.1-2.5-4.7-3.7c-3.8-3-7.6-6.1-11.5-9c-1.2-0.9-1.6-1.8-1.3-3.4c2.1-10.6,5.2-20.9,9-31c5-13.1,11.4-25.5,19.3-37.1 c5-7.3,10.3-14.2,16.3-20.6c1.9-2,3.8-4.1,5.8-6.2c1.3,1.1,2,2.3,2.6,3.6c3.1,5.9,4.8,12.3,6.4,18.8c2.9,11.4,5.1,22.9,6.8,34.5 c1.7,11.7,3.3,23.3,4.9,35c0.9,7.2,1.6,14.4,2.4,21.6c0.6,5.8,1,11.6,1.5,17.4c0.5,5.9,0.9,11.8,1.3,17.6c0.4,5.7,0.7,11.5,1,17.2 c0,0.4,0.1,0.8,0.2,1.2c0.3-0.3,0.5-0.6,0.8-0.8c0.8-0.8,1.7-1.6,2.3-2.5c1.6-2.2,3.1-4.5,4.6-6.8c0-1.7,0-3.4-0.1-5 c-0.4-8.8-0.7-17.5-1.1-26.3c-0.3-5.7-0.6-11.5-1-17.2c-0.5-6.8-0.9-13.5-1.5-20.3c-0.7-7.5-1.4-15.1-2.3-22.6 c-1.4-11-2.7-22-4.4-32.9c-2.3-14.7-5.1-29.2-9.6-43.4c-1.5-4.7-3.3-9.3-5.9-13.6c-1.6-2.7-3.8-4.6-6.9-5.5 c-6.1-1.8-12.1-1.3-18.1,0.4c-8,2.3-15.1,6.4-21.9,11.1c-11.3,7.8-21.4,16.9-30.9,26.8c-5,5.2-9.9,10.4-14.7,15.7 c-8.3,9.1-16,18.7-23.6,28.4c-2.1,2.7-4.2,5.4-6.4,8.2c-0.8-0.3-1.6-0.5-2.3-0.8c-4.2-1.6-8.3-3.3-12.6-4.7 c-10.4-3.6-21.1-6.4-32-8.1c-5-0.8-9.9-1.5-14.9-1.8c-4.7-0.3-9.4-0.1-14.1-0.2c-8.1-0.2-16.1,0.8-24,2.1 c-15.3,2.5-30,7.1-44.3,12.9c-2.1,0.8-2,0.8-3.5-1c-3.7-4.8-7.4-9.6-11.2-14.3c-8.7-10.9-17.8-21.6-27.5-31.6 c-8.1-8.4-16.3-16.7-25.5-24c-7.8-6.2-15.8-12-24.9-16c-6.6-2.8-13.3-4.8-20.7-3.9c-4.9,0.6-9.2,2.2-11.6,6.9 c-0.8,1.4-1.6,2.8-2.2,4.3c-4.4,9.9-7,20.4-9.1,31c-1.9,9.5-3.5,19.1-5,28.7c-1.4,9.3-2.5,18.6-3.7,28c-0.6,5-1.1,10-1.6,15 c-0.6,6.9-1.2,13.8-1.8,20.7c-0.3,4.1-0.4,8.3-0.7,12.4c-0.4,6-0.9,11.9-1.1,17.9c-0.3,7.7-0.4,15.3-0.6,23c1.6,2.3,3.1,4.7,4.8,7 C179.3,206,179.6,206.3,179.8,206.5z"/> <path class="st2" d="M176.7,257.1c7.2,7.2,14.9,13.7,23.4,19.3c3.8,2.5,7.6,5,11.4,7.4c0.5,0.3,1,0.7,2,1.4c-0.8,0.6-1.4,1-2,1.5 c-5.1,4.3-10.1,8.5-15.1,12.9c-8.9,7.8-17.3,16.1-25.6,24.6c-6.4,6.5-12.6,13.2-18.8,19.8c-1.8,1.9-3.4,3.8-5.2,5.6 c-0.7,0.8-1,1.5-0.9,2.6c0.3,5.2,1.3,10.3,2.7,15.3c2,6.9,4.8,13.5,8.2,19.9c4.7,8.9,10.3,17.3,16.6,25.2 c4.6,5.6,9.2,11.3,14.1,16.6c6.4,6.9,13,13.7,19.8,20.2c7.8,7.3,16.1,14.1,24.2,21.1c2.7,2.3,5.5,4.6,8.4,6.8 c0.5,0.4,1.1,0.5,1.7,0.8c-0.4-0.6-0.7-1.3-1.2-1.9c-7.9-9.5-15.1-19.4-21.5-29.9c-2.2-3.6-4.3-7.2-6.4-10.8 c0.1-0.1,0.3-0.2,0.4-0.3c0.6,0.9,1.3,1.8,1.9,2.7c6.7,10.5,14.5,20.1,22.9,29.4c16.9,18.7,35.9,34.9,57,48.7 c8.7,5.7,17.7,10.8,27.1,15.2c10.3,4.9,20.9,8.7,32.1,10.7c6.6,1.2,13.3,1.4,19.9-0.6c6.5-2,10.3-6.4,12-13.1 c-1.8-0.3-3.5-0.7-5.3-1c-16.6-2.7-31.5-9.5-45.1-19.4c-4.9-3.6-9.5-7.5-13.3-12.3c-2.7-3.3-5-6.9-5.9-11.1 c-0.8-3.6-0.8-7.1,1.5-10.3c0.2-0.2,0.2-0.6,0.2-0.9c-0.3-0.6-0.7-1.2-1.1-1.9c-0.1-0.2-0.2-0.4-0.3-0.6 c-4.8-11.6-8.3-23.7-10.9-35.9c-1.3-6-2.4-12-3.4-18.1c-0.9-5.6-1.7-11.2-2.5-16.8c-0.6-4.3-1.2-8.7-1.7-13 c-0.4-3.3-0.6-6.6-0.9-9.9c1.5-0.7,2.7-1.3,3.9-1.9c6.2-3.1,11.5-7.5,16-12.8c5.5-6.5,9.3-13.9,12.1-21.9c4.2-12.1,5.6-24.7,6-37.4 c0.3-7.3-0.1-14.5-0.8-21.7c-0.4-4.3-0.5-8.6-1.2-12.9c-1.5-9.1-3.2-18.2-5-27.3c-2.1-10.3-5-20.5-8.3-30.5 c-2.9-9-6.1-17.8-10.4-26.3c-0.4-0.7-0.8-1.4-1.2-2.2c-5.3,17.5-11.3,34.6-18.8,51.5c-1.4-2.9-2.6-5.4-3.8-7.9 c-3-6.2-6.4-12.1-10.2-17.9c-0.3-0.5-0.8-0.8-1.2-1.2c-2.3,8.9-4.4,17.6-6.8,26.2c-2.4,8.6-5.1,17-8.6,25.5 c-1.1-0.6-1.8-0.9-2.6-1.4c-8.8-5.2-17.6-10.4-25.9-16.4c-5.8-4.1-11.5-8.4-16.7-13.2c-5.4-5-10.4-10.4-14.8-16.3 c-1-1.3-1.9-2.7-2.7-4c-0.9-1.4-1.7-2.8-2.6-4.1c-0.4-0.5-0.8-1-1.2-1.4c-0.4-0.5-0.8-1-1.1-1.5c-1.3-2.1-2.4-4.3-3.9-6.8 c-0.2,1-0.5,1.6-0.5,2.2c0.2,4.1,0.5,8.2,0.8,12.4c0,0.4,0,0.9,0,1.3c0,0.4,0,0.9,0,1.3c0.5,2.2,1,4.3,1.5,6.5 c-0.2,0.1-0.3,0.2-0.5,0.3c-1.3-1.2-2.5-2.5-3.8-3.7c-1.2-1.3-2.7-2.4-3.1-4.3c0,0,0,0,0,0c-0.8-0.8-1.6-1.5-2.3-2.3 c-0.2-0.3-0.5-0.5-0.7-0.8c-1.7-2.3-3.2-4.6-4.8-7c-0.5-0.6-1.1-1.1-1.6-1.7c-4.1-5.9-7.5-12.2-10.7-18.7c-0.5-1-1-1.9-1.7-3.3 c-0.3,1.2-0.5,1.8-0.5,2.4c0,2.8-0.1,5.7,0.2,8.5c0.7,6.3,1.6,12.6,3.2,18.8c0.5,1.8,0.9,3.7,1.4,5.5c-0.5-0.4-1-0.7-1.4-1.2 c-2.6-3.5-5.3-7-7.8-10.5c-5.6-8-10.3-16.5-14.2-25.4c-0.3-0.8-0.8-1.5-1.2-2.2c-0.1,4.4-0.5,8.8,0,13.1c0.5,4.7,1.4,9.3,2.4,13.8 c1.6,7.1,4,13.9,7,20.5c3.5,7.7,7.6,15.1,12.6,21.9c0.8,1.1,1.4,2.4,2.1,3.7c0.5,0.4,1.2,0.8,1.6,1.3 C169.4,249.1,172.9,253.3,176.7,257.1z M214.3,296.3c1.4-2.8,3.2-5.3,5.5-7.5c4.1,2.1,8.1,4.1,12,6.2c1.3,0.7,2.7,1.4,4,2.2 c4.7,2.1,9.4,4.3,14.2,6.4c9.7,4.2,19.5,8.3,29.1,12.7c5.4,2.5,10.7,5.4,16,8.2c0.7,0.4,1.3,0.9,1.9,1.4c6.1,3.4,10.8,8.1,14.4,14 c0.6,1,0.6,1.8,0.1,2.9c-5.5,11.9-13.9,21.1-25.6,27.2c-5.6,2.9-11.7,4.5-18.1,5.1c-11.3,1-21.7-1.8-31.2-7.8 c-7.8-4.9-13.9-11.7-18.5-19.7c-4.6-8-7.1-16.6-7.8-25.7C209.7,313,210.1,304.3,214.3,296.3z M164.7,210.4c0,0,0-0.1-0.1-0.1 c0.1,0.1,0.1,0.1,0.2,0.2C164.8,210.4,164.7,210.4,164.7,210.4z"/> <path class="st2" d="M610.7,208c-0.3,0.3-0.5,0.5-0.8,0.8c-0.1,0.4-0.3,0.8-0.5,1.2c-0.1,0.2-0.2,0.4-0.3,0.5 c-0.2,0.3-0.5,0.7-0.8,1c0,0,0,0,0,0c-0.4,0.4-0.9,0.8-1.4,1.2c-1.2,1.4-2.5,2.8-3.7,4.2c-0.2-0.1-0.3-0.2-0.5-0.3 c0.2-1.1,0.3-2.2,0.5-3.3c0.2-1.1,0.4-2.2,0.9-3.2c0-0.9-0.1-1.9,0-2.8c0.2-3.6,0.6-7.1,0.8-10.7c0.1-1.1-0.2-2.3-0.4-3.9 c-1.5,2.6-2.6,4.7-3.9,6.8c-0.6,1.1-1.5,2-2.3,3c-0.1,0.3-0.1,0.6-0.3,0.9c-4.3,6.5-8.9,12.7-14.4,18.2c-2.3,2.3-4.7,4.5-7.1,6.8 c-6.2,5.8-13.1,10.7-20.2,15.4c-6.4,4.2-13,8.1-19.5,12.2c-1.2,0.7-2.5,1.3-3.9,2.1c-6.5-17-11.3-34.1-15.1-51.7 c-0.5,0.3-0.8,0.3-0.9,0.5c-0.4,0.4-0.7,0.9-1,1.4c-4.7,7.3-8.7,14.9-12.3,22.7c-0.3,0.7-0.4,1.6-1.6,1.7 c-1.7-4.2-3.5-8.3-5.1-12.4c-1.7-4.2-3.3-8.5-4.8-12.8c-1.5-4.2-2.9-8.5-4.3-12.7c-1.4-4.3-2.6-8.6-3.9-12.9 c-0.9,0.7-1.3,1.3-1.7,2c-0.9,1.9-1.7,3.8-2.6,5.7c-4.1,9.6-7.6,19.5-10.5,29.6c-2.3,8.3-4.5,16.6-6.4,25 c-2.2,10.3-4.1,20.6-4.9,31.1c-0.4,5.7-1.1,11.4-1.3,17.1c-0.2,7.4,0,14.8,0.8,22.2c0.5,5.3,1.3,10.6,2.5,15.8 c2.5,10.5,6.3,20.4,13,29.1c4.9,6.3,10.8,11.5,17.9,15.2c4.1,2.1,4.2,2.2,3.5,6.7c-0.6,4.5-1.2,9-1.7,13.5 c-0.7,5.6-1.2,11.3-2.2,16.8c-1.5,8.8-3.2,17.6-5.1,26.3c-0.6,3-1.4,6-2.1,9c-0.8,3-1.6,6-2.6,8.9c-1.9,5.9-4,11.7-6.6,17.4 c1.6,2.5,2.3,5.1,2.2,7.6c-0.1,2.5-0.9,5.1-2.1,7.6c-2.8,5.6-6.9,10.2-11.6,14.2c-11.6,10-24.8,17.3-39.6,21.6 c-4.7,1.4-9.6,2.1-14.5,3.1c-0.8,0.2-1.5,0.3-2.3,0.5c2,8.1,7.3,12.4,15.1,13.9c7.3,1.4,14.4,0.4,21.5-1.2c12.7-2.8,24.5-8,36-14.1 c15.9-8.4,30.6-18.6,44.6-30c5-4.1,9.8-8.4,14.5-12.9c4.9-4.7,9.8-9.4,14.4-14.4c7.9-8.4,15.2-17.4,21.7-27c1.9-2.7,3.7-5.4,5.9-8 c-0.8,1.4-1.5,2.9-2.4,4.3c-7.5,13.2-16.2,25.6-25.8,37.3c-0.2,0.3-0.4,0.6-0.6,0.9c-0.2,0.3-0.4,0.7-0.6,1c0,0,0,0,0,0 c-0.4-0.1-0.6,0-0.7,0.2c-0.1,0.1-0.1,0.2-0.1,0.4c0,0.1-0.1,0.3-0.1,0.4c0.3-0.3,0.7-0.7,1-1l0,0c0,0,0,0,0,0c0,0-0.1,0-0.1,0 c0,0,0,0,0,0c0.7-0.5,1.5-0.8,2.2-1.3c0.2-0.2,0.5-0.3,0.7-0.5c7.4-6.2,15-12.2,22.2-18.6c7.2-6.4,14.1-13,20.9-19.8 c11.2-11.2,21.4-23.2,30.3-36.3c6.3-9.2,11.6-18.9,15.3-29.5c2-5.7,3.2-11.5,4-17.4c0.3-2.3-0.1-4.3-2-6c-2.9-2.7-5.5-5.8-8.2-8.7 c-3.3-3.5-6.5-7.1-9.8-10.5c-6.3-6.4-12.5-12.8-19-19c-8.5-8.2-17.3-16.1-26.5-23.5c-0.6-0.4-1.1-1-1.8-1.7 c1.2-0.8,2.2-1.6,3.4-2.3c9.7-5.9,18.9-12.6,27.3-20.2c6.1-5.5,11.7-11.4,16.9-17.6c0.4-0.5,1.1-0.8,1.6-1.2 c0.3-0.7,0.4-1.4,0.8-1.9c1.9-2.9,4-5.7,5.9-8.7c4.6-7.3,8.6-14.9,11.3-23.1c1.3-4,2.6-8,3.6-12.1c1.2-4.8,2.1-9.6,2.5-14.5 c0.4-4.2,0.1-8.4,0.2-12.6c-0.4,0.3-0.7,0.7-0.9,1.1c-0.8,1.7-1.5,3.4-2.3,5c-3,6.2-6.2,12.2-10.1,17.9c-3,4.3-6.1,8.6-9.2,12.8 c-0.7,0.9-1.6,1.7-2.4,2.6c0.2-0.9,0.2-1.9,0.5-2.8c2.6-8.3,3.8-16.9,4.2-25.6c0.1-2.2-0.1-4.4-0.1-6.6c0-0.1-0.2-0.2-0.4-0.2 c-0.1,0.1-0.3,0.1-0.3,0.3c-2.8,6.3-6.1,12.3-9.7,18.1c-1.1,1.9-2.6,3.6-3.9,5.3c-1.5,2.3-3,4.6-4.6,6.8 C612.3,206.4,611.5,207.2,610.7,208z M581.3,308.2c1.5,11.3,0.1,22.3-4.4,32.8c-5.6,13.2-14.7,23.3-27.8,29.5 c-5.2,2.5-10.8,3.8-16.6,4.4c-9.2,0.9-17.8-0.9-26-4.8c-4.4-2.1-8.4-4.9-12.1-8.2c-5.4-4.8-9.5-10.5-13-16.8 c-2-3.8-2.1-4.4,0.4-7.7c0.4-0.6,0.9-1.2,1.3-1.8c0.5-0.6,1-1.2,1.5-1.8c2.9-3.3,6.3-6.1,10.2-8.3c3.2-2.3,6.7-4.2,10.2-6 c1-0.5,1.9-0.9,2.9-1.4c0.7-0.3,1.3-0.6,2-0.9c13.3-5.9,26.7-11.7,40.1-17.5c1-0.4,2-0.9,3-1.4c1-0.5,2-0.9,3-1.4 c0.5-0.3,1-0.6,1.6-0.9c0.5-0.3,1-0.6,1.6-0.9c4.2-2.2,8.4-4.3,12.8-6.6c0.5,0.6,1.1,1.2,1.7,1.8 C578.3,295.6,580.4,301.6,581.3,308.2z M627.2,210.3c0,0,0.1,0,0.2-0.1c-0.1,0.1-0.1,0.1-0.2,0.2 C627.2,210.4,627.2,210.3,627.2,210.3z"/> <path class="st1" d="M664,349.4c-0.5-7.3-1.1-14.6-2.4-21.8c-3.2-18.4-9.4-35.8-17.1-52.7c-4.9-10.7-10.5-21-16.6-31 c-0.5,0.4-1.2,0.7-1.6,1.2c-5.2,6.3-10.8,12.1-16.9,17.6c-8.4,7.6-17.6,14.3-27.3,20.2c-1.1,0.7-2.2,1.5-3.4,2.3 c0.8,0.7,1.3,1.2,1.8,1.7c9.3,7.3,18,15.3,26.5,23.5c6.5,6.2,12.7,12.6,19,19c3.4,3.4,6.6,7,9.8,10.5c2.7,2.9,5.3,6,8.2,8.7 c1.9,1.8,2.3,3.7,2,6c-0.8,5.9-2,11.8-4,17.4c-3.7,10.5-9,20.3-15.3,29.5c-8.9,13.1-19.1,25.2-30.3,36.3 c-6.8,6.8-13.7,13.4-20.9,19.8c-7.2,6.4-14.7,12.4-22.2,18.6c-0.2,0.2-0.5,0.4-0.7,0.5c-0.7,0.5-1.5,0.9-2.2,1.3c0,0,0.1,0,0.1,0h0 c0,0,0,0,0,0l0,0c-0.3,0.3-0.7,0.7-1,1c-1.6,1.7-3.2,3.3-4.7,5c-3.2,3.4-6.4,6.9-9.7,10.3c-4.2,4.3-8.4,8.5-12.8,12.6 c-8.9,8.2-18.3,15.9-28.3,22.9c-9.7,6.8-19.7,13.1-30.4,18.2c-8.9,4.2-18.1,7.8-27.8,9.4c-4.1,0.7-8.4,1.3-12.6,1.2 c-9.7-0.2-18.4-3.1-25.3-10.2c-0.6-0.6-1.2-1.3-1.8-2c-0.3,0.2-0.6,0.2-0.8,0.5c-6,7.1-13.8,10.6-22.9,11.6 c-10.9,1.2-21.2-1.5-31.4-5c-11.8-4.2-22.7-10.1-33.3-16.8c-10.5-6.7-20.5-14.2-29.9-22.3c-4.7-4-9.2-8.2-13.6-12.4 c-4.9-4.8-9.7-9.7-14.5-14.7c-2.3-2.4-4.3-4.9-6.4-7.4c-0.2-0.2-0.4-0.4-0.6-0.6s-0.4-0.4-0.6-0.5c-0.2-0.2-0.5-0.4-0.7-0.5 c0,0,0.1,0,0.1,0c0,0,0,0,0,0c-0.6-0.2-1.2-0.4-1.7-0.8c-2.8-2.2-5.6-4.5-8.4-6.8c-8.1-7-16.4-13.8-24.2-21.1 c-6.9-6.4-13.4-13.2-19.8-20.2c-4.9-5.3-9.6-10.9-14.1-16.6c-6.3-7.8-11.9-16.2-16.6-25.2c-3.4-6.4-6.2-13-8.2-19.9 c-1.4-5-2.4-10.1-2.7-15.3c-0.1-1,0.2-1.8,0.9-2.6c1.8-1.8,3.4-3.8,5.2-5.6c6.3-6.6,12.5-13.3,18.8-19.8 c8.3-8.5,16.6-16.8,25.6-24.6c5-4.3,10.1-8.6,15.1-12.9c0.6-0.5,1.2-0.9,2-1.5c-1-0.7-1.5-1.1-2-1.4c-3.8-2.5-7.7-4.9-11.4-7.4 c-8.5-5.6-16.3-12.1-23.4-19.3c-3.8-3.8-7.3-8-10.9-12.1c-0.5-0.5-1.1-0.8-1.6-1.3c-6.5,10.5-12.2,21.4-17.3,32.6 c-5.3,11.6-9.7,23.6-13.1,36c-2.1,7.7-3.8,15.5-4.6,23.5c-0.5,4.4-0.5,8.8-1.1,13.1c-0.6,4.4-0.2,8.8,0.3,13.1 c1.2,9.5,4.5,18.4,8.6,27c4.6,9.6,10.2,18.6,16.4,27.3c10.3,14.4,21.9,27.7,34.2,40.3c5.1,5.2,10.3,10.3,15.5,15.3 c4.3,4.1,8.5,8.2,13,12.1c6.8,6,13.6,12.1,20.6,17.8c9.3,7.7,18.7,15.3,28.3,22.6c10.9,8.3,22,16.2,33.1,24.1 c12.5,8.8,25.3,17.2,38.4,24.9c8.2,4.9,16.7,9.4,25.1,14.1c7.9,4.4,16.1,8,24.7,11c5.9,2,11.7,2.5,17.8,0.5 c7.6-2.4,14.8-5.6,21.8-9.2c7.9-4,15.7-8.3,23.3-12.8c13.3-7.7,26.2-15.9,38.8-24.7c9.7-6.7,19.4-13.5,28.9-20.6 c9.5-7,18.8-14.3,28-21.7c16.5-13.1,32.3-27,47.4-41.7c6.3-6.1,12.4-12.4,18.4-18.9c6.4-7,12.7-14.1,18.7-21.5 c10.3-12.8,19.6-26.2,26.4-41.3C661.3,375,664.9,362.8,664,349.4z"/> <path class="st3" d="M549.6,478.6c0-0.1,0.1-0.3,0.1-0.4c0.1-0.2,0.3-0.3,0.7-0.2c0.2-0.3,0.4-0.7,0.6-1c0.2-0.3,0.4-0.6,0.6-0.9 c9.6-11.7,18.3-24.1,25.8-37.3c0.8-1.4,1.6-2.9,2.4-4.3c-2.2,2.5-4,5.3-5.9,8c-6.5,9.6-13.8,18.5-21.7,27c-4.6,5-9.5,9.7-14.4,14.4 c-4.7,4.4-9.5,8.8-14.5,12.9c-13.9,11.4-28.6,21.6-44.6,30c-11.5,6.1-23.3,11.2-36,14.1c-7.1,1.6-14.2,2.6-21.5,1.2 c-7.8-1.5-13.2-5.8-15.1-13.9c0.8-0.2,1.5-0.3,2.3-0.5c4.8-1,9.7-1.7,14.5-3.1c14.7-4.3,28-11.6,39.6-21.6c4.7-4,8.8-8.6,11.6-14.2 c1.2-2.5,2-5.1,2.1-7.6c0.1-2.5-0.6-5.1-2.2-7.6l0,0c-1.7-1.3-3.4-2.7-5.2-3.7c-4.7-2.6-10-3.9-15.2-5c-10.9-2.4-21.9-3.5-32.9-4.1 c-7.4-0.5-14.8-0.6-22.3-0.7c-6.5,0-13.1,0.2-19.6,0.5c-5.7,0.2-11.3,0.6-17,1c-8.1,0.6-16.2,1.7-24.1,3.5c-2.2,0.5-4.4,1-6.5,1.7 c-4.7,1.4-9.2,3.4-13.2,6.6c-0.1,0.3-0.1,0.7-0.2,0.9c-2.3,3.2-2.3,6.7-1.5,10.3c1,4.2,3.3,7.8,5.9,11.1c3.8,4.8,8.4,8.7,13.3,12.3 c13.6,9.9,28.4,16.7,45.1,19.4c1.7,0.3,3.5,0.6,5.3,1c-1.7,6.8-5.5,11.1-12,13.1c-6.6,2.1-13.2,1.8-19.9,0.6 c-11.2-1.9-21.9-5.8-32.1-10.7c-9.4-4.5-18.4-9.6-27.1-15.2c-21.1-13.8-40.1-30-57-48.7c-8.3-9.2-16.1-18.9-22.9-29.4 c-0.6-0.9-1.3-1.8-1.9-2.7c-0.1,0.1-0.3,0.2-0.4,0.3c2.1,3.6,4.2,7.2,6.4,10.8c6.4,10.5,13.6,20.4,21.5,29.9 c0.5,0.6,0.8,1.3,1.2,1.9c0,0-0.1,0-0.1,0c0.2,0.2,0.5,0.4,0.7,0.5c0.2,0.2,0.4,0.4,0.6,0.5s0.4,0.4,0.6,0.6c2.2,2.5,4.2,5,6.4,7.4 c4.8,5,9.5,9.9,14.5,14.7c4.4,4.3,8.9,8.4,13.6,12.4c9.4,8.1,19.4,15.6,29.9,22.3c10.5,6.7,21.5,12.7,33.3,16.8 c10.1,3.6,20.4,6.2,31.4,5c9.1-1,16.9-4.4,22.9-11.6c0.2-0.2,0.5-0.3,0.8-0.5c0.7,0.7,1.2,1.4,1.8,2c6.9,7.1,15.6,10.1,25.3,10.2 c4.2,0.1,8.4-0.5,12.6-1.2c9.8-1.7,18.9-5.2,27.8-9.4c10.7-5.1,20.7-11.4,30.4-18.2c9.9-7,19.4-14.6,28.3-22.9 c4.4-4.1,8.6-8.3,12.8-12.6c3.3-3.4,6.4-6.9,9.7-10.3c1.6-1.7,3.1-3.3,4.7-5C549.5,478.9,549.6,478.7,549.6,478.6z"/> <path class="st3" d="M600.4,199.6c1.3-2.1,2.4-4.2,3.9-6.8c0.2,1.6,0.5,2.8,0.4,3.9c-0.2,3.6-0.5,7.1-0.8,10.7 c-0.1,0.9,0,1.9,0,2.8l0,0v0c0.9,0.9,1.9,1.7,2.8,2.6c0.5-0.4,1-0.8,1.4-1.2c0,0,0,0,0,0c0.3-0.3,0.6-0.6,0.8-1 c0.1-0.2,0.2-0.3,0.3-0.5c0.2-0.4,0.4-0.8,0.5-1.2c-0.1-0.4-0.2-0.8-0.2-1.2c-0.3-5.7-0.6-11.5-1-17.2c-0.4-5.9-0.8-11.8-1.3-17.6 c-0.5-5.8-0.9-11.6-1.5-17.4c-0.7-7.2-1.4-14.4-2.4-21.6c-1.5-11.7-3.1-23.4-4.9-35c-1.7-11.6-3.9-23.1-6.8-34.5 c-1.6-6.4-3.4-12.8-6.4-18.8c-0.7-1.3-1.4-2.5-2.6-3.6c-2,2.2-3.9,4.2-5.8,6.2c-6,6.4-11.4,13.4-16.3,20.6 c-7.9,11.6-14.3,24-19.3,37.1c-3.9,10.1-6.9,20.4-9,31c-0.3,1.6,0.1,2.4,1.3,3.4c3.9,2.9,7.6,6,11.5,9c1.6,1.3,3.2,2.5,4.7,3.7 c4-4.5,7.8-8.9,11.8-13.1c4-4.3,8.3-8.3,13.6-11.8c-0.3,11.5-0.1,22.4,1.3,33.6c5.2-3.6,10-7.4,15.7-9.9c0,0.8,0,1.2,0,1.5 c-0.4,3.7-0.9,7.4-1.1,11.2c-0.4,9.5-0.2,19,0.8,28.4c0.2,1.6,0.8,2.9,1.8,4.1c1.5,1.7,2.9,3.6,4.4,5.3 C598.9,201.6,599.7,200.7,600.4,199.6z"/> <path class="st3" d="M198.3,197.3c0.9-1.1,1.5-2.1,1.6-3.6c0.3-3.8,0.9-7.6,1-11.4c0.2-8.5,0.3-17.1-0.8-25.6 c-0.2-1.4-0.3-2.9-0.4-4.7c5.8,2.6,10.6,6.3,15.8,9.9c1.4-11.2,1.7-22.2,1.3-33.7c10.1,7.2,17.8,16,25.2,24.9c0.3,0,0.4,0,0.5-0.1 c5.6-4.4,11.1-8.8,16.7-13.2c0.8-0.6,0.9-1.3,0.7-2.3c-1.2-4.8-2.2-9.6-3.5-14.4c-4.2-15.3-10.2-29.7-18.2-43.4 c-7-12.1-15.5-23.3-24.9-33.6c-1.3-1.4-2.7-2.7-4.2-4.2c-0.8,1.2-1.6,2.2-2.1,3.2c-3.3,6.1-5.1,12.7-6.7,19.4 c-3.2,12.5-5.5,25.1-7.4,37.8c-1.4,9.8-2.9,19.5-4.1,29.3c-1.1,8.4-2,16.8-2.8,25.2c-0.9,9.4-1.7,18.9-2.3,28.3 c-0.5,6.8-0.7,13.5-1.1,20.3c-0.1,1.1-0.2,2.2-0.3,3.3c0.4,1.9,1.9,3,3.1,4.3c0.9-1,1.8-2,2.8-3c0-0.4,0-0.9,0-1.3 c0-0.4,0-0.9,0-1.3c-0.2-4.1-0.5-8.2-0.8-12.4c0-0.6,0.3-1.3,0.5-2.2c1.4,2.5,2.6,4.7,3.9,6.8c0.3,0.5,0.7,1,1.1,1.5s0.8,1,1.2,1.4 C195.4,200.8,196.8,199,198.3,197.3z"/> <path class="st4" d="M210.3,321.7c0.7,9.1,3.3,17.7,7.8,25.7c4.6,8,10.6,14.8,18.5,19.7c9.5,6,19.9,8.8,31.2,7.8 c6.4-0.6,12.4-2.1,18.1-5.1c11.7-6.1,20.1-15.2,25.6-27.2c0.5-1.1,0.5-2-0.1-2.9c-3.6-5.9-8.4-10.6-14.4-14 c-1.4,5-3.3,9.7-6.3,13.8c-5.8,7.9-13.3,13-23.2,14.2c-10.7,1.3-19.8-2.3-27.3-9.9c-7.3-7.5-10.8-16.6-10.9-27 c-0.1-4.3,0.4-8.4,2-12.4c1.1-2.7,2.8-5,4.5-7.3c-1.3-0.7-2.6-1.5-4-2.2c-4-2-7.9-4.1-12-6.2c-2.3,2.2-4.1,4.7-5.5,7.5 C210.1,304.3,209.7,313,210.3,321.7z"/> <path class="st3" d="M231.3,304.4c-1.6,4-2.1,8.2-2,12.4c0.2,10.4,3.6,19.5,10.9,27c7.5,7.6,16.5,11.2,27.3,9.9 c9.9-1.2,17.4-6.3,23.2-14.2c3.1-4.2,5-8.9,6.3-13.8c-0.6-0.5-1.2-1-1.9-1.4c-5.3-2.8-10.5-5.7-16-8.2c-9.6-4.4-19.4-8.5-29.1-12.7 c-4.7-2.1-9.4-4.2-14.2-6.4C234.1,299.4,232.4,301.7,231.3,304.4z"/> <path class="st1" d="M185.3,213.1c1.3,1.2,2.5,2.5,3.8,3.7c0.2-0.1,0.3-0.2,0.5-0.3c-0.5-2.2-1-4.3-1.5-6.5 C187.1,211.1,186.2,212.1,185.3,213.1z"/> <path class="st4" d="M572.1,288.8c-4.4,2.3-8.6,4.4-12.8,6.6c-0.5,0.3-1.1,0.6-1.6,0.9c-0.5,0.3-1,0.6-1.6,0.9c2,2.7,4,5.4,5,8.7 c2.1,6.7,2,13.4,0.4,20.1c-2.3,9.5-7.4,17.3-15.6,22.8c-5.9,4-12.4,5.9-19.5,5.4c-10-0.7-18.1-5.3-24.3-13.1 c-3.6-4.5-5.8-9.7-7.3-15.2c-3.9,2.2-7.3,5-10.2,8.3c-0.5,0.6-1,1.2-1.5,1.8c-0.5,0.6-0.9,1.2-1.3,1.8c-2.4,3.4-2.4,4-0.4,7.7 c3.4,6.3,7.5,12,13,16.8c3.7,3.3,7.6,6.1,12.1,8.2c8.2,3.9,16.8,5.7,26,4.8c5.8-0.6,11.3-1.9,16.6-4.4 c13.1-6.2,22.1-16.3,27.8-29.5c4.5-10.5,5.8-21.5,4.4-32.8c-0.8-6.5-3-12.6-7.5-17.6C573.2,290,572.6,289.4,572.1,288.8z"/> <path class="st3" d="M502.2,340.9c6.2,7.9,14.3,12.5,24.3,13.1c7,0.5,13.6-1.4,19.5-5.4c8.2-5.5,13.3-13.3,15.6-22.8 c1.6-6.7,1.7-13.4-0.4-20.1c-1-3.3-3-6-5-8.7c-1,0.5-2,0.9-3,1.4c-1,0.5-2,0.9-3,1.4c-13.4,5.8-26.7,11.6-40.1,17.5 c-0.7,0.3-1.3,0.6-2,0.9c-1,0.5-1.9,0.9-2.9,1.4c-3.5,1.8-7,3.7-10.2,6C496.3,331.2,498.6,336.4,502.2,340.9z"/> <path class="st1" d="M604,210.2L604,210.2c-0.4,1-0.7,2.1-0.9,3.2c-0.2,1.1-0.3,2.2-0.5,3.3c0.2,0.1,0.3,0.2,0.5,0.3 c1.2-1.4,2.5-2.8,3.7-4.2C605.8,211.9,604.9,211,604,210.2z"/> <path class="st5" d="M242.2,478.6c-0.2-0.2-0.5-0.4-0.7-0.5"/> </g> </svg>